#!OML:ASF H:\Terrain\Patient Classification 1\Animal2\Wednesday\Animal2.ASF
:FULLY-SPECIFIED
:DEGREES
770
root 15.7486 17.202 3.9528 30.2147 31.4145 0.814529
lowerback 21.1815 -1.62344 1.08767
upperback -10.7397 -2.15327 -1.1917
thorax -25.0501 -1.18105 -1.14237
lowerneck 6.34207 5.07928 15.2319
upperneck -35.0736 4.53045 -20.7272
head -11.1937 2.88192 -11.4912
rclavicle -1.51076e-014 -2.66371e-014
rhumerus 64.8781 -21.4701 -24.3675
rradius 41.6594
rwrist -23.8728
rhand -30.0387 2.99741
rfingers 7.12502
rthumb -3.35484 -26.9559
lclavicle -1.51076e-014 -2.66371e-014
lhumerus 45.4992 26.4764 0.872456
lradius 53.8282
lwrist 80.438
lhand -40.775 17.9504
lfingers 7.12502
lthumb -13.7147 47.4785
rfemur -57.7248 0.0766262 10.5597
rtibia 47.047
rfoot -21.4414 -1.12198
rtoes 24.9337
lfemur -56.1152 -1.70156 -8.23211
ltibia 42.4844
lfoot -16.0137 2.17967
ltoes -41.8288
771
root 15.7575 17.1579 3.97295 29.8992 31.5343 0.973394
lowerback 21.5976 -1.67005 1.21408
upperback -11.1608 -2.21477 -1.35072
thorax -25.9782 -1.25114 -1.37073
lowerneck 6.85495 5.00154 15.3776
upperneck -34.6026 4.56387 -20.6053
head -11.1088 2.87977 -11.4349
rclavicle -1.17283e-014 -1.39149e-014
rhumerus 65.2817 -20.6489 -24.8097
rradius 40.9753
rwrist -23.0038
rhand -29.6858 3.83958
rfingers 7.12502
rthumb -3.014 -26.1189
lclavicle -1.17283e-014 -1.39149e-014
lhumerus 44.9528 26.0616 0.674894
lradius 54.3347
lwrist 79.5712
lhand -40.2674 18.1044
lfingers 7.12502
lthumb -13.2255 47.6649
rfemur -57.6005 0.00330786 10.5009
rtibia 47.8738
rfoot -21.8874 -1.24507
rtoes 23.9067
lfemur -56.0139 -1.8174 -8.3945
ltibia 43.1609
lfoot -16.468 2.3295
ltoes -42.3175
772
root 15.7682 17.1198 3.98925 29.57 31.7132 1.03805
lowerback 21.465 -1.69518 1.26272
upperback -11.1871 -2.21343 -1.26472
thorax -25.9231 -1.24717 -1.29889
lowerneck 7.05925 4.97744 15.2515
upperneck -34.6357 4.51398 -20.6561
head -11.179 2.88051 -11.452
rclavicle 5.86415e-015 1.51076e-014
rhumerus 65.1316 -20.7546 -24.3103
rradius 41.302
rwrist -23.112
rhand -29.0524 4.39125
rfingers 7.12502
rthumb -2.40229 -25.575
lclavicle 5.86415e-015 1.51076e-014
lhumerus 44.6561 26.4347 0.722632
lradius 54.4149
lwrist 78.9752
lhand -40.139 17.944
lfingers 7.12502
lthumb -13.1018 47.5124
rfemur -57.5408 -0.153121 10.555
rtibia 48.6617
rfoot -22.2854 -1.41925
rtoes 23.3842
lfemur -55.9557 -1.89151 -8.49099
ltibia 43.8351
lfoot -16.8606 2.44706
ltoes -42.7522
773
root 15.7774 17.0918 4.01043 29.1917 31.9229 1.11103
lowerback 21.302 -1.72543 1.27994
upperback -11.1529 -2.234 -1.19563
thorax -25.7573 -1.24831 -1.22062
lowerneck 7.27014 4.97891 15.4097
upperneck -34.7076 4.49978 -20.9209
head -11.2341 2.88799 -11.6222
rclavicle 9.74045e-015 8.74653e-015
rhumerus 64.4228 -21.0706 -23.4153
rradius 41.997
rwrist -23.6433
rhand -28.5707 4.69785
rfingers 7.12502
rthumb -1.93708 -25.2731
lclavicle 9.74045e-015 8.74653e-015
lhumerus 44.4155 26.8549 0.661184
lradius 54.448
lwrist 78.9951
lhand -40.3095 16.9869
lfingers 7.12502
lthumb -13.2661 46.5447
rfemur -57.3611 -0.217926 10.564
rtibia 49.3932
rfoot -22.6911 -1.68953
rtoes 22.4249
lfemur -55.8388 -2.05259 -8.52053
ltibia 44.501
lfoot -17.3023 1.953
ltoes -41.1832
774
root 15.7866 17.06 4.03469 28.7612 32.0486 1.2014
lowerback 21.4028 -1.75013 1.27249
upperback -11.2661 -2.27912 -1.2299
thorax -26.0005 -1.26983 -1.23583
lowerneck 7.65313 5.09311 16.048
upperneck -34.5622 4.69964 -21.5032
head -11.1465 2.98267 -12.0046
rclavicle -3.38928e-014 2.94201e-014
rhumerus 64.3853 -20.9547 -23.3748
rradius 42.0268
rwrist -23.3287
rhand -28.301 4.72497
rfingers 7.12502
rthumb -1.6766 -25.2482
lclavicle -3.38928e-014 2.94201e-014
lhumerus 44.3954 26.9793 0.673585
lradius 54.4091
lwrist 79.0912
lhand -40.4616 16.0743
lfingers 7.12502
lthumb -13.4127 45.6225
rfemur -57.0892 -0.17797 10.5008
rtibia 50.0838
rfoot -23.0305 -1.49098
rtoes 23.3054
lfemur -55.6053 -2.18824 -8.59801
ltibia 45.1079
lfoot -17.7104 1.96732
ltoes -41.2309
775
root 15.7961 17.0232 4.05858 28.298 32.0918 1.27324
lowerback 21.5693 -1.77887 1.25695
upperback -11.2356 -2.3274 -1.24317
thorax -26.0715 -1.28706 -1.21785
lowerneck 6.85943 5.14607 15.6209
upperneck -34.0578 4.72957 -21.0447
head -10.8153 2.98544 -11.5879
rclavicle 3.71727e-014 2.78299e-015
rhumerus 64.9328 -21.0938 -23.9393
rradius 41.9005
rwrist -22.5236
rhand -28.0254 4.79187
rfingers 7.12502
rthumb -1.41042 -25.1832
lclavicle 3.71727e-014 2.78299e-015
lhumerus 44.0193 27.4129 0.533894
lradius 54.6624
lwrist 79.0127
lhand -40.6432 15.9651
lfingers 7.12502
lthumb -13.5878 45.5017
rfemur -56.7899 -0.160298 10.4796
rtibia 50.7162
rfoot -23.3711 -1.08788
rtoes 24.9724
lfemur -55.2865 -2.26948 -8.69711
ltibia 45.6453
lfoot -18.1146 2.34512
ltoes -42.1305
776
root 15.8042 17.002 4.08378 28.0824 32.1016 1.53984
lowerback 21.6246 -1.73137 1.1652
upperback -11.342 -2.31845 -1.3589
thorax -26.2737 -1.28431 -1.30762
lowerneck 6.61518 5.2243 15.5192
upperneck -33.8223 4.83203 -20.9535
head -10.6564 3.03407 -11.4777
rclavicle -2.92213e-014 1.94809e-014
rhumerus 64.7178 -21.1218 -23.8697
rradius 42.0209
rwrist -22.1657
rhand -27.9743 4.84813
rfingers 7.12502
rthumb -1.36108 -25.1273
lclavicle -2.92213e-014 1.94809e-014
lhumerus 43.5537 27.5439 0.325933
lradius 55.2535
lwrist 78.9914
lhand -41.1074 16.0761
lfingers 7.12502
lthumb -14.0352 45.5822
rfemur -56.6769 -0.12296 10.1799
rtibia 51.3061
rfoot -23.6693 -0.459289
rtoes 27.9619
lfemur -55.0535 -2.45559 -8.91073
ltibia 46.0965
lfoot -18.4233 2.35922
ltoes -41.6973
777
root 15.8109 16.9887 4.1133 27.9881 32.141 1.87871
lowerback 21.5793 -1.68298 1.02903
upperback -11.5531 -2.33039 -1.49905
thorax -26.5676 -1.28633 -1.3957
lowerneck 6.83321 5.24885 15.5958
upperneck -33.6496 4.90944 -21.0049
head -10.61 3.07454 -11.5057
rclavicle -2.45499e-014 -3.45885e-014
rhumerus 64.4539 -20.8719 -23.6801
rradius 42.0115
rwrist -22.0786
rhand -28.3548 5.35012
rfingers 7.12502
rthumb -1.72859 -24.6226
lclavicle -2.45499e-014 -3.45885e-014
lhumerus 43.4781 27.5546 0.410802
lradius 55.527
lwrist 78.9139
lhand -41.4371 15.8554
lfingers 7.12502
lthumb -14.3529 45.3392
rfemur -56.5586 -0.0173544 9.80093
rtibia 51.8211
rfoot -24.0113 -0.599186
rtoes 28.1998
lfemur -54.8575 -2.62986 -9.18443
ltibia 46.4587
lfoot -18.5692 2.1901
ltoes -41.0848
778
root 15.8171 16.9707 4.14493 27.6704 32.2773 1.94294
lowerback 21.5353 -1.63818 1.07268
upperback -11.6802 -2.26428 -1.55427
thorax -26.7352 -1.27796 -1.51913
lowerneck 7.03015 5.14675 15.7576
upperneck -33.4758 4.79131 -21.1373
head -10.5985 3.02048 -11.5813
rclavicle 7.73272e-014 -2.38542e-015
rhumerus 64.7708 -20.692 -23.974
rradius 41.6071
rwrist -21.6963
rhand -28.823 6.52545
rfingers 7.12502
rthumb -2.18073 -23.4431
lclavicle 7.73272e-014 -2.38542e-015
lhumerus 43.6536 27.7184 0.71156
lradius 55.4822
lwrist 78.6595
lhand -41.5044 15.4069
lfingers 7.12502
lthumb -14.4177 44.8861
rfemur -56.2297 0.103884 9.79873
rtibia 52.2498
rfoot -24.3567 -1.35991
rtoes 25.9531
lfemur -54.5747 -2.70338 -9.21819
ltibia 46.7647
lfoot -18.8197 1.67199
ltoes -39.7982
779
root 15.8227 16.961 4.17861 27.0414 32.5074 1.69695
lowerback 21.5983 -1.57644 1.27966
upperback -11.7121 -2.07924 -1.45489
thorax -26.8218 -1.22963 -1.59907
lowerneck 6.97768 5.08815 15.7682
upperneck -33.3004 4.68805 -21.2268
head -10.539 2.98178 -11.5914
rclavicle -7.45443e-016 3.18055e-014
rhumerus 64.2114 -20.8238 -23.5964
rradius 42.0362
rwrist -21.8161
rhand -28.9135 6.80915
rfingers 7.12502
rthumb -2.26815 -23.1585
lclavicle -7.45443e-016 3.18055e-014
lhumerus 43.4076 27.9298 0.841581
lradius 55.6988
lwrist 78.5398
lhand -41.6287 14.8156
lfingers 7.12502
lthumb -14.5374 44.2862
rfemur -55.7107 0.298093 10.0734
rtibia 52.6044
rfoot -24.5498 -1.30135
rtoes 27.4673
lfemur -54.1069 -2.73162 -8.95271
ltibia 47.0365
lfoot -19.146 1.01374
ltoes -38.1875
